<svg xmlns="http://www.w3.org/2000/svg" version="1.1" xmlns:xlink="http://www.w3.org/1999/xlink" xmlns:svgjs="http://svgjs.dev/svgjs" viewBox="0 0 800 800"><defs><filter id="uuunion-blur" x="-100%" y="-100%" width="400%" height="400%" color-interpolation-filters="sRGB">
        <feGaussianBlur in="SourceGraphic" stdDeviation="7.5 19" result="blur"></feGaussianBlur>
        <feDropShadow stdDeviation="12.307692307692308" in="blur" dx="10" dy="10" flood-color="hsl(316, 73%, 52%)" flood-opacity="0.25" x="0%" y="0%" width="100%" height="100%"></feDropShadow>
      </filter><filter id="uuunion-blur2" x="-100%" y="-100%" width="400%" height="400%" color-interpolation-filters="sRGB">
        <feGaussianBlur in="SourceGraphic" stdDeviation="7.5 19" result="blur"></feGaussianBlur>
        <feDropShadow stdDeviation="12.307692307692308" in="blur" dx="-10" dy="-10" flood-color="hsl(316, 73%, 52%)" flood-opacity="0.25" x="0%" y="0%" width="100%" height="100%"></feDropShadow>
      </filter><linearGradient gradientTransform="rotate(0, 0.5, 0.5)" x1="50%" y1="0%" x2="50%" y2="100%" id="uuunion-grad"><stop stop-color="hsl(37, 99%, 67%)" offset="10%"></stop><stop stop-color="hsl(316, 73%, 52%)" offset="90%"></stop></linearGradient><linearGradient gradientTransform="rotate(135, 0.5, 0.5)" x1="50%" y1="0%" x2="50%" y2="100%" id="uuunion-grad2"><stop stop-color="hsl(37, 99%, 67%)" offset="25%"></stop><stop stop-color="hsl(316, 73%, 52%)" offset="100%"></stop></linearGradient><linearGradient gradientTransform="rotate(333, 0.5, 0.5)" x1="50%" y1="0%" x2="50%" y2="100%" id="uuunion-grad3"><stop stop-color="hsl(37, 99%, 67%)" offset="0%"></stop><stop stop-color="hsl(316, 73%, 52%)" offset="75%"></stop></linearGradient></defs><path d="M-78.9 -79.71Q-64.29 -77.22 -49.69 -74.96 -35.08 -73.11 -20.47 -71.84 -5.86 -71.24 8.74 -71.36 23.35 -72.19 37.96 -73.67 52.57 -75.68 67.18 -78.03 81.79 -80.56 96.4 -83.03 111.01 -85.26 125.62 -87.05 140.23 -88.25 154.84 -88.78 169.45 -88.58 184.06 -87.67 198.67 -86.12 213.28 -84.07 227.89 -81.68 242.5 -79.16 257.11 -76.7 271.72 -74.51 286.33 -72.78 300.94 -71.65 315.55 -71.2 330.16 -71.48 344.77 -72.46 359.37 -74.07 373.98 -76.17 388.59 -78.58 403.2 -81.11 417.81 -83.55 432.42 -85.69 447.03 -87.36 461.64 -88.43 476.25 -88.79 490.86 -88.44 505.47 -87.38 520.08 -85.71 534.69 -83.57 549.3 -81.14 563.91 -78.61 578.52 -76.19 593.13 -74.09 607.74 -72.48 622.35 -71.49 636.96 -71.2 651.57 -71.64 666.18 -72.77 680.79 -74.49 695.4 -76.67 710.01 -79.13 724.62 -81.65 739.23 -84.04 753.84 -86.1 768.44 -87.65 783.05 -88.57 797.66 -88.78 812.27 -88.26 826.88 -87.06 841.49 -85.28 856.1 -83.06 856.32 -68.14 858.93 -53.22 863.66 -38.29 870.05 -23.37 877.44 -8.45 885.08 6.46 892.22 21.38 898.12 36.3 902.19 51.23 904.02 66.15 903.42 81.07 900.45 95.99 895.42 110.91 888.84 125.83 881.36 140.76 873.74 155.68 866.75 170.6 861.1 185.52 857.36 200.44 855.91 215.36 856.88 230.29 860.2 245.21 865.51 260.13 872.28 275.05 879.84 289.97 887.41 304.89 894.23 319.82 899.61 334.74 903.01 349.66 904.09 364.58 902.74 379.5 899.08 394.42 893.5 409.34 886.56 424.27 878.95 439.19 871.45 454.11 864.81 469.03 859.71 483.95 856.65 498.87 855.95 513.8 857.68 528.72 861.66 543.64 867.5 558.56 874.6 573.48 882.24 588.4 889.65 603.33 896.09 618.25 900.91 633.17 903.61 648.09 903.93 663.01 901.83 677.93 897.52 692.86 891.45 707.78 884.22 722.7 876.56 737.62 869.25 752.54 863.02 767.46 858.51 782.39 856.17 797.31 856.23 812.23 858.7 827.15 863.31 842.07 865.81 861.53 847.06 861.36 832.11 858.2 817.16 856.84 802.21 857.39 787.26 859.81 772.31 863.9 757.36 869.32 742.41 875.62 727.46 882.28 712.51 888.75 697.56 894.5 682.61 899.05 667.66 902.03 652.71 903.18 637.76 902.42 622.8 899.81 607.85 895.56 592.9 890.02 577.95 883.65 563 876.98 548.05 870.56 533.1 864.92 518.15 860.53 503.2 857.74 488.25 856.8 473.3 857.76 458.35 860.57 443.4 864.98 428.45 870.64 413.5 877.06 398.55 883.73 383.6 890.09 368.65 895.61 353.7 899.85 338.75 902.44 323.8 903.18 308.85 902.01 293.89 899.01 278.94 894.44 263.99 888.68 249.04 882.2 234.09 875.54 219.14 869.25 204.19 863.84 189.24 859.77 174.29 857.37 159.34 856.84 144.39 858.23 129.44 861.41 114.49 866.13 99.54 871.99 84.59 878.52 69.64 885.16 54.69 891.38 39.74 896.66 24.79 900.57 9.84 902.77 -5.1 903.09 -20.05 901.5 -35.01 898.14 -49.96 893.27 -64.91 887.31 -79.86 880.75 -79.52 865.74 -79.23 850.73 -79.02 835.72 -78.91 820.72 -78.91 805.71 -79.01 790.7 -79.22 775.69 -79.5 760.69 -79.84 745.68 -80.19 730.67 -80.52 715.67 -80.8 700.66 -80.99 685.65 -81.09 670.64 -81.07 655.64 -80.95 640.63 -80.73 625.62 -80.44 610.61 -80.1 595.61 -79.75 580.6 -79.42 565.59 -79.16 550.59 -78.98 535.58 -78.9 520.57 -78.93 505.56 -79.07 490.56 -79.3 475.55 -79.6 460.54 -79.95 445.53 -80.29 430.53 -80.61 415.52 -80.87 400.51 -81.03 385.5 -81.09 370.5 -81.05 355.49 -80.89 340.48 -80.64 325.48 -80.33 310.47 -79.99 295.46 -79.64 280.45 -79.33 265.45 -79.09 250.44 -78.94 235.43 -78.9 220.42 -78.96 205.42 -79.13 190.41 -79.39 175.4 -79.71 160.4 -80.06 145.39 -80.4 130.38 -80.7 115.37 -80.93 100.37 -81.06 85.36 -81.09 70.35 -81.01 55.34 -80.82 40.34 -80.55 25.33 -80.23 10.32 -79.88 -4.67 -79.54 -19.68 -79.25 -34.69 -79.03 -49.7 -78.91 -64.7 -78.9 -79.71" fill="url(#uuunion-grad)"></path><path d="M-78.9 -79.71Q-78.91 -64.7 -79.03 -49.7 -79.25 -34.69 -79.54 -19.68 -79.88 -4.67 -80.23 10.32 -80.55 25.33 -80.82 40.34 -81.01 55.34 -81.09 70.35 -81.06 85.36 -80.93 100.37 -80.7 115.37 -80.4 130.38 -80.06 145.39 -79.71 160.4 -79.39 175.4 -79.13 190.41 -78.96 205.42 -78.9 220.42 -78.94 235.43 -79.09 250.44 -79.33 265.45 -79.64 280.45 -79.99 295.46 -80.33 310.47 -80.64 325.48 -80.89 340.48 -81.05 355.49 -81.09 370.5 -81.03 385.5 -80.87 400.51 -70.66 403.56 -60.45 406.47 -50.24 409.15 -40.03 411.49 -29.83 413.41 -19.62 414.83 -0.48 415.91 2.82 415.98 15.65 409.04 28.5 401.23 41.36 392.66 54.2 383.47 67.02 373.83 79.78 363.94 92.48 354.01 105.11 344.26 117.63 334.87 130.05 326.03 142.36 317.87 154.55 310.5 166.62 303.97 178.56 298.28 190.39 293.39 202.11 289.22 213.73 285.64 225.27 282.48 236.75 279.57 248.18 276.71 259.59 273.71 270.99 270.38 282.43 266.56 293.92 262.13 305.49 256.98 317.16 251.06 328.97 244.36 340.92 236.93 353.05 228.83 365.38 220.18 377.9 211.13 390.64 201.84 403.61 192.49 416.79 183.26 430.2 174.31 443.81 165.79 457.62 157.84 471.61 150.52 485.76 143.91 500.03 138 514.41 132.77 528.85 128.15 543.32 124.03 557.78 120.3 572.19 116.79 586.51 113.35 600.7 109.81 614.72 106.03 628.54 101.87 642.11 97.2 655.42 91.97 668.43 86.1 681.13 79.6 693.49 72.48 705.51 64.81 717.19 56.68 728.52 48.2 739.52 39.5 750.21 30.74 760.61 22.05 770.75 13.56 780.67 5.42 790.4 -2.28 800 -9.48 791.99 -26.73 785.08 -43.98 780.22 -61.23 778.07 -78.48 778.92 -95.73 782.66 -112.98 788.77 -130.23 796.43 -147.49 781.58 -146.47 766.74 -144.93 751.9 -142.98 737.06 -140.79 722.21 -138.54 707.37 -136.4 692.53 -134.56 677.69 -133.16 662.84 -132.32 648 -132.1 633.16 -132.53 618.31 -133.57 603.47 -135.14 588.63 -137.1 573.79 -139.29 558.94 -141.55 544.1 -143.67 529.26 -145.5 514.41 -146.88 499.57 -147.69 484.73 -147.88 469.89 -147.43 455.04 -146.36 440.2 -144.78 425.36 -142.81 410.51 -140.61 395.67 -138.35 380.83 -136.24 365.99 -134.43 351.14 -133.07 336.3 -132.28 321.46 -132.12 306.62 -132.6 291.77 -133.68 276.93 -135.28 262.09 -137.27 247.24 -139.48 232.4 -141.73 217.56 -143.83 202.72 -145.63 187.87 -146.97 173.03 -147.73 158.19 -147.87 143.34 -147.36 128.5 -146.25 113.66 -144.63 98.82 -142.64 83.97 -140.42 69.13 -138.18 54.29 -136.08 39.44 -134.3 24.6 -132.98 9.76 -132.24 -5.07 -132.13 -19.92 -132.66 -34.76 -133.79 -49.6 -135.43 -64.44 -137.44 -79.29 -139.66 -94.13 -141.9 -108.97 -143.99 -123.82 -145.76 -133.06 -133.62 -115.51 -115.24 -106.25 -106.56 -97.07 -97.72 -87.96 -88.76 -78.9 -79.71" fill="url(#uuunion-grad2)" filter="url(#uuunion-blur)"></path><path d="M817.42 384.82Q827.63 384.13 837.84 384.03 848.04 384.51 858.25 385.56 868.46 387.14 878.67 389.2 888.88 391.66 899.08 394.42 893.5 409.34 886.56 424.27 878.95 439.19 871.45 454.11 864.81 469.03 859.71 483.95 856.65 498.87 855.95 513.8 857.68 528.72 861.66 543.64 867.5 558.56 874.6 573.48 882.24 588.4 889.65 603.33 896.09 618.25 900.91 633.17 903.61 648.09 903.93 663.01 901.83 677.93 897.52 692.86 891.45 707.78 884.22 722.7 876.56 737.62 869.25 752.54 863.02 767.46 858.51 782.39 856.17 797.31 856.23 812.23 858.7 827.15 863.31 842.07 866.43 861.75 849.52 862.04 835.8 858.82 822.08 857.08 808.36 856.93 794.64 858.39 780.92 861.36 767.2 865.62 753.48 870.89 739.76 876.79 726.04 882.91 712.32 888.83 698.6 894.14 684.88 898.46 671.16 901.49 657.44 903.03 643.72 902.96 630 901.29 616.28 898.14 602.56 893.72 588.84 888.35 575.12 882.39 561.4 876.27 547.68 870.41 533.96 865.22 520.24 861.05 506.52 858.21 492.8 856.88 479.08 857.16 465.36 859.04 451.64 862.37 437.92 866.93 424.2 872.41 410.48 878.41 396.76 884.52 383.04 890.31 369.32 895.39 355.6 899.4 341.88 902.05 328.16 903.16 314.44 902.67 300.72 900.59 287 897.08 273.28 892.37 259.56 886.81 245.84 880.77 232.12 874.68 218.4 868.95 204.67 864 190.95 860.16 177.23 857.7 163.51 856.8 149.79 857.51 136.07 859.79 122.35 863.47 108.63 868.31 94.91 873.96 81.19 880.03 67.47 886.1 53.75 891.75 40.03 896.57 26.31 900.24 5.63 897.77 -1.51 882.89 -1.67 872.74 -1.8 862.59 -1.9 852.44 -1.96 842.29 -1.71 827.07 -0.96 822 11.27 815.02 23.56 806.83 35.92 797.56 48.37 787.37 60.9 776.51 73.53 765.24 86.26 753.86 99.1 742.66 112.04 731.93 125.07 721.91 138.18 712.82 151.37 704.81 164.62 697.97 177.91 692.32 191.22 687.83 204.54 684.38 217.84 681.79 231.09 679.86 244.27 678.32 257.37 676.91 270.35 675.34 283.21 673.36 295.91 670.71 308.45 667.19 320.82 662.67 333 657.05 345 650.3 356.8 642.46 368.42 633.64 379.86 623.99 391.14 613.72 402.28 603.05 413.28 592.26 424.19 581.59 435.02 571.31 445.81 561.64 456.6 552.76 467.41 544.83 478.28 537.92 489.25 532.08 500.35 527.25 511.63 523.35 523.09 520.24 534.79 517.73 546.74 515.59 558.97 513.59 571.48 511.49 584.3 509.04 597.43 506.03 610.86 502.28 624.59 497.66 638.61 492.08 652.9 485.52 667.44 478 682.18 469.61 697.11 460.47 712.17 450.77 727.32 440.7 742.52 430.5 757.71 420.38 772.85 410.57 787.88 401.26 810.09 388.73 817.42 384.82" fill="url(#uuunion-grad3)" filter="url(#uuunion-blur2)"></path></svg>